<?xml version="1.0" standalone="no"?>
<!DOCTYPE svg PUBLIC "-//W3C//DTD SVG 20010904//EN"
 "http://www.w3.org/TR/2001/REC-SVG-20010904/DTD/svg10.dtd">
<svg version="1.0" xmlns="http://www.w3.org/2000/svg"
 width="360.000000pt" height="360.000000pt" viewBox="0 0 360.000000 360.000000"
 preserveAspectRatio="xMidYMid meet">
<metadata>
Created by potrace 1.14, written by Peter Selinger 2001-2017
</metadata>
<g transform="translate(0.000000,360.000000) scale(0.100000,-0.100000)"
fill="#000000" stroke="none">
<path d="M0 3533 c1 -66 1 -67 16 -40 8 15 16 27 18 27 2 0 13 -15 24 -34 16
-28 25 -33 46 -29 19 4 26 1 26 -11 0 -9 -6 -16 -14 -16 -8 0 -17 -4 -21 -10
-10 -16 46 -37 117 -44 45 -5 71 -13 83 -26 21 -23 9 -31 -50 -33 -34 -2 -49
3 -65 21 -13 13 -33 22 -51 22 -30 0 -89 27 -89 41 0 4 -9 9 -20 12 -20 5 -20
0 -20 -304 0 -299 1 -309 19 -309 11 0 23 -5 27 -11 5 -8 -1 -10 -20 -7 -26 5
-27 4 -24 -36 3 -39 4 -41 34 -38 27 2 33 -2 44 -28 16 -39 0 -60 -45 -60 -32
0 -32 -1 -33 -44 l-1 -44 161 4 161 3 41 -40 c22 -22 63 -52 91 -66 27 -14 64
-36 81 -49 17 -13 35 -24 41 -24 5 0 18 -9 27 -19 10 -10 33 -22 52 -25 19 -4
44 -18 57 -31 12 -13 34 -29 50 -34 15 -6 27 -18 27 -26 0 -18 56 -45 93 -45
29 0 47 -18 47 -46 0 -14 8 -25 21 -29 11 -4 18 -12 16 -18 -6 -19 -49 -21
-59 -3 -5 8 -15 13 -23 9 -9 -3 -21 0 -28 5 -8 7 -75 10 -194 7 l-181 -4 -37
29 c-43 34 -108 42 -119 14 -8 -21 -2 -29 34 -44 32 -13 40 -30 15 -30 -9 0
-18 6 -21 14 -3 8 -16 17 -29 20 -35 9 -51 43 -31 65 19 20 21 57 5 67 -7 4
-24 7 -40 6 -19 0 -33 7 -43 23 -10 15 -36 29 -71 39 -30 9 -55 22 -55 30 0
17 -40 52 -67 59 -20 5 -23 1 -23 -28 0 -18 6 -36 13 -38 10 -4 10 -6 0 -6 -7
-1 -13 -12 -13 -26 0 -23 3 -24 71 -27 61 -3 74 -6 86 -25 14 -21 14 -23 -13
-34 -16 -7 -55 -14 -86 -17 l-58 -4 0 -134 c0 -78 4 -135 10 -139 7 -4 7 -12
0 -25 -14 -26 -13 -50 2 -46 47 15 78 15 78 1 0 -9 -10 -15 -24 -15 -38 0 -66
-47 -66 -109 0 -56 0 -56 44 -40 25 9 44 8 91 -5 98 -28 109 -29 188 -11 79
17 95 31 76 67 -17 31 -4 32 30 0 28 -26 60 -97 48 -109 -3 -2 -63 -8 -133
-14 -137 -10 -154 -17 -154 -66 0 -13 -10 -29 -25 -39 -32 -21 -39 -15 -25 20
5 15 10 40 10 56 l0 29 -75 0 -75 0 0 -49 0 -49 47 -6 c64 -9 75 -13 68 -25
-3 -5 -31 -10 -61 -10 l-54 0 0 -65 0 -65 35 0 c19 0 44 5 55 12 10 7 22 9 26
5 13 -13 -20 -35 -66 -44 l-45 -9 -3 -92 c-3 -88 -2 -92 18 -92 12 0 30 5 41
10 15 8 24 7 39 -8 33 -31 143 -72 156 -59 3 3 -1 20 -10 38 -20 40 -20 43 2
34 21 -9 162 -13 167 -4 3 3 31 -7 65 -23 47 -23 65 -38 81 -69 16 -33 32 -46
85 -69 44 -20 74 -28 93 -24 32 7 61 -16 61 -49 0 -11 -14 -35 -31 -53 -30
-31 -30 -32 -13 -53 22 -26 41 -27 67 -3 19 16 19 16 13 -5 -5 -16 -1 -25 16
-37 20 -14 23 -14 40 1 17 15 18 14 18 -14 0 -36 -19 -56 -40 -43 -26 17 -57
11 -69 -13 -10 -20 -11 -21 -6 -1 9 36 -11 72 -42 76 -22 2 -29 9 -31 30 -3
21 -12 29 -51 42 -26 8 -84 16 -127 17 -151 3 -206 -32 -170 -107 14 -30 19
-34 31 -24 12 10 23 8 54 -13 22 -15 52 -29 67 -33 38 -10 91 -42 98 -59 9
-25 88 -76 107 -70 11 4 26 -2 38 -14 29 -29 61 -28 61 3 0 13 -7 29 -15 36
-8 7 -15 25 -15 41 0 35 30 57 85 61 41 3 44 -1 34 -42 -3 -11 6 -16 32 -18
21 -2 45 -12 54 -23 10 -10 24 -19 32 -19 16 0 18 -46 2 -56 -6 -3 -21 -1 -34
6 -19 10 -27 9 -49 -5 -14 -10 -26 -25 -26 -35 0 -10 -7 -24 -16 -31 -13 -11
-17 -10 -25 4 -16 28 -56 21 -73 -12 -9 -16 -23 -31 -31 -35 -25 -9 -63 -7
-70 4 -14 23 -61 10 -93 -26 l-31 -35 -36 28 c-19 15 -35 31 -35 36 0 15 -25
6 -50 -18 l-25 -24 -50 24 c-28 14 -64 34 -81 44 -37 22 -124 39 -124 23 0 -5
7 -15 14 -22 8 -6 16 -30 18 -53 3 -39 6 -43 43 -55 23 -8 106 -16 192 -19
119 -5 156 -9 165 -21 12 -13 -1 -14 -107 -8 -101 6 -336 7 -477 2 l-38 -1 0
-55 0 -55 122 0 c193 0 650 -15 661 -22 5 -3 42 -7 81 -9 39 -2 107 -5 151 -8
44 -2 132 -7 195 -10 63 -2 126 -8 140 -12 14 -4 48 -6 75 -4 97 6 428 1 459
-7 16 -5 14 -8 -13 -19 -36 -15 -114 -17 -146 -5 -11 5 -24 5 -30 1 -21 -16
-69 -17 -138 -4 -83 16 -177 18 -177 5 0 -10 122 -71 140 -71 6 0 10 9 10 21
0 20 3 21 129 18 107 -3 132 -7 149 -22 17 -15 23 -16 40 -6 14 9 24 10 34 2
16 -12 288 -17 288 -5 0 5 44 9 98 10 53 0 129 2 167 4 39 2 80 0 93 -4 34
-11 112 2 112 19 0 23 25 9 28 -15 3 -22 6 -22 198 -22 112 0 193 4 190 9 -3
5 2 12 11 15 10 4 20 1 25 -7 5 -11 29 -15 83 -16 69 -1 75 1 75 19 0 26 15
26 33 0 13 -19 23 -21 102 -18 l88 3 -38 25 c-21 14 -43 34 -49 45 -6 11 -15
24 -21 28 -5 5 8 6 29 2 41 -7 86 -31 86 -47 0 -22 54 -58 87 -58 32 0 34 2
31 28 -2 20 -11 29 -34 37 -18 6 -51 28 -75 51 -27 24 -63 45 -92 53 -26 8
-50 17 -53 22 -2 4 -11 6 -18 3 -7 -3 -16 2 -20 11 -3 9 -10 14 -16 10 -6 -4
-5 -13 2 -25 21 -33 9 -36 -104 -28 -39 3 -74 27 -50 35 6 3 12 18 12 35 0 33
-8 32 88 11 21 -5 23 -2 20 23 -3 26 -7 29 -49 34 -50 6 -79 23 -79 47 0 13
-78 53 -104 53 -7 0 -19 11 -26 25 -7 14 -20 25 -27 25 -32 0 -75 34 -108 85
-52 82 -64 70 -47 -45 6 -40 10 -45 36 -50 19 -3 30 -12 32 -24 2 -17 20 -35
34 -36 3 0 11 15 18 32 l12 33 25 -29 c14 -16 25 -33 25 -37 0 -4 3 -16 6 -26
6 -15 4 -16 -7 -5 -7 6 -26 12 -42 12 -33 0 -33 -23 1 -28 11 -2 28 -14 36
-28 9 -13 25 -24 35 -24 18 0 35 -35 25 -52 -3 -4 -18 -8 -34 -8 -16 0 -32 -4
-35 -10 -17 -28 -95 5 -95 39 0 34 -65 42 -119 15 -25 -12 -41 -14 -78 -6 -26
6 -52 8 -57 5 -16 -11 -150 -11 -173 0 -17 7 -28 6 -47 -7 -14 -9 -36 -16 -49
-16 -12 0 -28 -5 -35 -12 -9 -9 -17 -7 -34 8 -13 11 -43 33 -67 50 -39 25 -52
29 -105 27 -81 -4 -96 2 -96 36 0 36 27 60 70 61 19 0 89 4 155 8 99 6 119 10
116 22 -2 8 -5 27 -6 41 -2 33 -12 49 -31 49 -8 0 -17 13 -21 30 -4 20 -16 36
-34 45 -15 8 -30 24 -34 35 -3 11 -12 20 -19 20 -25 0 -39 -30 -41 -85 -2 -60
-12 -77 -55 -95 -36 -15 -84 -5 -76 15 8 21 3 432 -6 490 -2 13 6 24 25 33 34
16 36 53 5 75 -20 13 -22 18 -10 37 9 14 11 36 7 61 -8 46 -2 48 30 12 28 -33
48 -22 43 23 -3 30 -7 31 -45 20 -22 -7 -23 -5 -19 54 2 43 9 67 23 83 11 12
26 32 32 44 10 19 7 24 -19 40 -28 16 -30 22 -28 61 1 33 -3 47 -15 54 -25 13
-21 44 9 67 l26 21 -28 10 c-15 6 -55 10 -88 9 -84 -2 -176 18 -203 43 -12 11
-33 26 -45 32 -13 6 -27 21 -33 33 -11 27 -48 48 -69 40 -21 -8 -20 -46 1 -69
20 -23 6 -41 -28 -36 -23 3 -24 7 -26 77 -1 40 -6 78 -12 84 -6 6 -11 30 -11
54 l0 44 29 -22 c18 -13 36 -19 47 -15 19 7 96 -23 88 -36 -12 -19 26 -18 57
1 20 12 51 21 76 21 38 0 43 3 60 38 16 34 22 37 58 37 28 0 51 8 75 26 19 15
45 30 58 34 22 6 32 35 12 35 -15 0 -12 57 4 63 19 8 29 83 15 124 -6 19 -14
32 -17 29 -3 -3 -13 1 -23 10 -17 15 -23 15 -83 -1 -59 -16 -68 -16 -127 -1
-34 8 -74 26 -88 40 -14 13 -35 28 -46 34 -18 9 -20 20 -19 91 0 62 4 86 17
98 15 16 18 15 40 -5 24 -23 71 -29 82 -11 4 6 0 9 -11 7 -13 -2 -20 4 -22 18
-2 17 3 23 25 27 42 8 82 -20 54 -37 -10 -6 -2 -43 25 -118 15 -44 19 -48 49
-48 49 0 60 20 35 63 -12 20 -27 34 -33 32 -7 -2 -22 16 -33 41 l-21 45 27 19
c16 11 35 20 43 20 9 0 18 4 22 10 8 12 -18 72 -38 89 -12 9 -17 29 -17 61 0
30 -5 50 -12 53 -19 6 -48 -11 -48 -28 0 -10 -11 -15 -35 -15 -21 0 -36 -5
-37 -12 0 -7 -1 -20 -2 -28 -1 -8 -11 -16 -23 -18 -26 -4 -33 19 -21 64 5 19
4 43 -2 58 -17 45 -78 30 -95 -23 -5 -18 -8 -18 -33 -5 -16 8 -40 11 -59 8
-27 -5 -36 -1 -71 35 -33 35 -46 41 -80 41 -29 0 -42 -5 -47 -17 -6 -17 -7
-17 -21 1 -18 26 -18 35 4 43 9 3 25 13 34 20 13 12 53 15 185 15 127 0 176 4
201 15 48 21 248 30 307 13 53 -15 55 -18 58 -150 l3 -95 69 -8 c85 -9 107
-25 85 -64 -8 -14 -30 -31 -49 -37 -44 -14 -49 -29 -15 -45 21 -9 25 -16 20
-37 -5 -17 0 -37 14 -60 11 -19 23 -53 26 -75 6 -34 3 -43 -15 -55 -16 -12
-21 -26 -21 -59 0 -44 1 -44 29 -39 36 7 46 -7 47 -66 1 -107 5 -140 14 -140
6 0 10 16 10 35 0 56 54 73 105 33 22 -17 31 -19 46 -10 28 18 41 15 81 -21
29 -25 35 -36 27 -49 -5 -9 -16 -15 -23 -12 -8 3 -27 -1 -43 -9 -20 -11 -34
-12 -47 -5 -9 5 -43 12 -74 14 -31 2 -66 5 -77 6 -16 2 -23 -7 -36 -46 -11
-32 -24 -53 -38 -58 -14 -5 -21 -16 -21 -35 0 -17 -9 -35 -26 -48 l-25 -20 19
-46 c11 -26 25 -50 31 -53 6 -4 11 -18 11 -32 0 -19 -5 -24 -24 -24 -13 0 -26
-5 -28 -11 -2 -5 -23 -12 -46 -13 -60 -4 -70 -17 -42 -55 15 -23 20 -39 15
-60 -3 -16 0 -45 9 -67 27 -71 27 -105 2 -154 l-24 -45 31 -27 c17 -16 42 -28
58 -28 15 0 29 -7 33 -15 8 -21 142 -105 179 -112 19 -3 49 -22 73 -47 28 -29
59 -48 96 -60 39 -12 66 -29 97 -62 43 -46 75 -64 115 -64 49 0 92 -91 49
-104 -23 -6 -473 -6 -495 0 -10 3 -18 11 -18 18 0 20 -53 63 -87 71 -17 3 -48
22 -68 41 -61 57 -71 49 -70 -53 0 -49 4 -96 8 -105 4 -10 9 -25 12 -33 2 -9
16 -15 34 -15 28 0 49 -19 49 -45 0 -5 6 -11 13 -14 6 -2 10 2 7 9 -2 7 5 23
16 34 12 12 28 32 36 45 15 23 17 23 65 9 39 -11 102 -14 279 -12 207 3 232 2
249 -14 15 -12 21 -14 24 -4 5 14 81 16 102 3 23 -15 -6 -24 -53 -17 -39 6
-43 4 -54 -19 -16 -35 -16 -35 21 -36 17 -1 43 -4 57 -8 45 -12 1 -26 -82 -25
-68 1 -78 -1 -78 -16 0 -10 6 -22 13 -28 17 -14 242 -21 370 -11 106 7 108 7
173 -22 35 -16 68 -37 71 -47 13 -33 75 -73 91 -58 3 4 1 26 -5 49 -7 25 -8
43 -2 45 17 6 10 59 -8 67 -17 6 -17 7 -1 19 16 12 18 52 18 551 0 433 -2 536
-13 523 -6 -8 -27 -21 -45 -28 -18 -7 -31 -18 -30 -26 2 -7 -1 -12 -7 -11 -5
1 -9 6 -7 10 1 4 -3 17 -9 29 -9 17 -8 23 5 30 24 14 19 28 -9 28 -31 0 -80
50 -62 62 18 12 27 9 27 -7 0 -8 5 -15 10 -15 31 0 -11 45 -52 55 -26 7 -89
75 -70 75 19 0 79 -29 92 -44 7 -9 23 -16 35 -16 18 0 22 -4 18 -20 -4 -16 0
-20 20 -20 14 0 28 7 31 17 7 18 -12 35 -29 25 -5 -3 -4 1 2 9 20 24 -25 60
-82 67 -35 3 -50 11 -62 29 -9 14 -27 29 -40 34 -16 6 -23 15 -21 27 3 14 13
16 63 13 68 -5 108 -5 183 -3 l52 2 0 345 c0 300 -2 345 -15 345 -8 0 -15 4
-15 10 0 11 -69 42 -79 36 -13 -8 -205 14 -215 24 -5 5 -24 10 -42 10 -37 0
-64 8 -64 20 0 4 97 7 215 6 l215 -2 0 23 0 23 -182 0 c-101 0 -239 2 -308 4
-69 2 -192 1 -275 -3 -82 -4 -158 -5 -167 -3 -35 8 -20 48 45 123 12 14 61 17
353 24 186 5 381 9 433 9 66 1 95 5 98 14 4 9 -48 12 -234 13 -131 0 -260 4
-288 9 -27 4 -46 8 -41 9 5 0 3 8 -4 16 -7 9 -29 15 -51 15 -27 0 -46 7 -66
26 -15 14 -45 33 -66 41 -22 9 -44 27 -53 44 -8 16 -22 29 -32 30 -9 1 -43 2
-74 3 -36 0 -58 5 -58 12 0 22 25 32 75 30 28 -1 61 2 74 6 22 8 23 10 8 25
-13 13 -21 14 -44 5 -15 -6 -48 -10 -73 -9 -40 2 -45 5 -44 25 1 23 -34 41
-55 28 -6 -4 -28 2 -50 14 -28 14 -70 22 -131 27 -94 6 -139 24 -110 43 8 5
33 10 55 10 54 0 115 18 115 34 0 7 -9 32 -21 55 -18 38 -23 42 -47 37 -59
-12 -254 -11 -372 2 -156 18 -624 27 -615 12 3 -5 -3 -10 -14 -10 -11 0 -23 5
-26 10 -3 6 -26 10 -49 10 -35 0 -45 -4 -49 -20 -3 -12 -14 -20 -26 -20 -14 0
-21 6 -21 20 0 20 -6 20 -257 18 -142 -1 -234 -3 -205 -5 50 -4 54 -6 68 -38
18 -43 18 -50 0 -68 -16 -15 -85 -16 -119 -2 -25 10 -134 0 -152 -15 -20 -17
-72 2 -123 45 -22 20 -55 38 -74 41 -18 4 -41 14 -52 23 -14 13 -47 17 -157
19 l-139 4 0 -69z m188 16 c2 -5 12 -9 22 -9 26 0 35 -19 17 -37 -11 -12 -19
-12 -35 -4 -11 6 -35 8 -53 4 -23 -4 -30 -3 -25 5 4 7 16 12 27 12 10 0 19 5
19 11 0 5 -4 8 -9 4 -6 -3 -15 4 -21 16 -11 20 -10 21 22 14 18 -4 35 -11 36
-16z m140 -49 c13 -16 29 -30 37 -30 9 0 15 -10 15 -25 0 -22 4 -25 36 -25 37
0 74 -15 74 -29 0 -11 -121 -2 -134 10 -5 5 -10 18 -11 31 -2 25 -25 38 -25
14 0 -24 -17 -28 -47 -12 -24 12 -26 15 -10 21 18 8 23 40 7 50 -18 11 -11 25
13 25 14 0 32 -12 45 -30z m1168 -21 c16 -17 28 -20 79 -17 54 3 60 1 63 -18
3 -23 3 -23 -88 -28 -79 -5 -97 -1 -111 26 -8 15 -7 24 7 39 22 24 27 24 50
-2z m-1268 -30 c-2 -6 -8 -10 -13 -10 -5 0 -11 4 -13 10 -2 6 4 11 13 11 9 0
15 -5 13 -11z m1596 -44 c23 -23 23 -24 5 -41 -23 -20 -24 -59 -5 -96 18 -34
16 -34 -34 -3 -38 24 -40 27 -34 65 4 22 4 40 0 40 -4 0 -24 -8 -45 -18 -33
-16 -44 -17 -84 -7 -41 10 -46 10 -50 -7 -4 -12 -14 -18 -35 -18 -43 0 -47 13
-9 29 18 7 40 17 49 22 10 5 27 9 38 9 11 0 20 4 20 10 0 12 57 38 95 43 42 5
62 -1 89 -28z m-718 -26 c23 -21 65 -25 93 -7 30 19 61 -2 101 -68 35 -58 37
-59 89 -66 36 -4 57 -12 67 -26 7 -11 26 -22 41 -25 38 -9 69 -37 77 -69 l6
-28 -155 0 -155 0 -6 25 c-3 14 -3 36 0 50 8 33 -7 61 -39 69 -14 4 -30 17
-35 30 -7 20 -17 24 -72 29 -35 3 -81 3 -102 -1 -34 -6 -41 -12 -48 -40 -5
-17 -12 -32 -16 -32 -8 0 -54 30 -62 41 -12 16 -110 57 -152 63 -44 7 -48 10
-48 35 0 15 4 31 9 37 6 5 88 8 198 6 170 -3 190 -5 209 -23z m-456 -7 c0 -14
-11 -21 -26 -15 -8 3 -11 9 -8 14 7 11 34 12 34 1z m870 -2 c0 -5 -11 -10 -25
-10 -14 0 -25 5 -25 10 0 6 11 10 25 10 14 0 25 -4 25 -10z m408 -48 c2 -7 -3
-12 -12 -12 -9 0 -16 7 -16 16 0 17 22 14 28 -4z m-1428 -48 c0 -9 -7 -14 -17
-12 -25 5 -28 28 -4 28 12 0 21 -6 21 -16z m1765 -14 c0 -10 -13 -16 -42 -18
-33 -2 -43 0 -43 12 0 16 23 25 60 23 15 -1 25 -8 25 -17z m-2085 -10 c12 -8
12 -10 -3 -16 -22 -8 -50 3 -42 16 8 12 25 13 45 0z m633 -7 c10 -6 9 -41 -3
-63 -15 -27 -38 -14 -42 23 -2 24 -8 33 -25 35 -13 2 -23 8 -23 14 0 9 74 2
93 -9z m717 2 c-6 -12 -41 -8 -55 6 -7 7 1 9 25 7 19 -2 33 -7 30 -13z m550 6
c0 -5 -8 -19 -18 -31 -16 -20 -19 -20 -31 -6 -7 9 -11 23 -7 31 6 16 56 21 56
6z m-2037 -8 c-7 -2 -19 -2 -25 0 -7 3 -2 5 12 5 14 0 19 -2 13 -5z m1136 -39
c32 -33 35 -71 7 -99 -28 -28 -76 -34 -76 -9 0 8 -18 33 -40 55 -44 44 -46 49
-27 68 18 19 114 9 136 -15z m521 6 c11 -11 20 -22 20 -25 0 -10 -26 -4 -49
11 -18 13 -20 18 -10 25 18 11 16 12 39 -11z m-777 -40 c21 -25 34 -25 42 0 5
16 10 18 25 10 32 -17 11 -52 -32 -56 -29 -2 -39 2 -52 21 -28 43 -15 62 17
25z m1115 5 c3 -3 -2 -13 -10 -22 -13 -12 -34 -16 -85 -15 -41 1 -85 -5 -110
-15 -37 -13 -43 -20 -43 -44 0 -24 -4 -29 -25 -29 -15 0 -25 6 -25 15 0 8 11
22 25 31 14 9 25 22 25 29 0 21 46 45 87 46 21 1 49 5 63 9 25 9 88 6 98 -5z
m147 -29 c26 -26 23 -66 -6 -66 -16 0 -19 4 -14 20 3 10 1 28 -5 40 -13 24 3
28 25 6z m-101 -22 c4 -10 1 -14 -6 -12 -15 5 -23 28 -10 28 5 0 13 -7 16 -16z
m-393 -20 c12 -14 11 -16 -5 -13 -11 2 -21 10 -24 17 -5 17 13 15 29 -4z m973
1 c8 -8 18 -15 23 -15 4 0 18 -8 31 -18 l23 -18 -26 -24 -27 -25 -24 30 c-13
17 -24 33 -24 37 0 4 -17 8 -37 10 -27 2 -39 8 -41 21 -3 14 4 17 42 17 26 0
51 -6 60 -15z m-364 -40 c7 -8 8 -15 3 -15 -6 0 -22 -12 -37 -27 -23 -22 -29
-25 -37 -13 -13 22 -11 30 9 37 9 4 21 12 25 20 10 17 22 17 37 -2z m595 -5
c4 -6 -14 -10 -47 -9 -49 2 -50 2 -18 9 52 11 58 11 65 0z m-502 -7 c-13 -2
-33 -2 -45 0 -13 2 -3 4 22 4 25 0 35 -2 23 -4z m-969 -13 c-12 -4 -24 -15
-27 -24 -9 -22 -27 -20 -27 3 0 19 17 28 55 29 19 1 19 0 -1 -8z m1110 -53 c6
-26 -35 -105 -59 -111 -39 -11 -83 -6 -89 9 -3 8 -12 15 -19 15 -8 0 -20 7
-27 15 -19 23 -49 18 -60 -10 -5 -14 -14 -25 -20 -25 -13 0 -13 57 0 65 6 3
10 16 10 29 0 12 3 25 6 29 4 3 62 5 130 4 109 -1 123 -4 128 -20z m-1618 -47
c38 0 47 -24 18 -51 -20 -18 -29 -21 -42 -13 -9 6 -17 15 -17 20 0 5 -4 15 -9
22 -12 20 2 48 16 34 7 -7 22 -12 34 -12z m238 -9 c27 -28 28 -31 21 -108 -8
-83 -19 -118 -36 -107 -7 4 -7 10 0 17 15 15 13 77 -4 107 -7 14 -11 37 -8 53
4 20 2 27 -11 27 -16 0 -22 21 -9 33 11 12 18 8 47 -22z m-94 -61 c-14 -11
-28 -20 -32 -20 -15 0 -8 43 10 56 14 11 20 10 32 -2 13 -13 12 -17 -10 -34z
m-332 29 c-4 -13 -114 -23 -131 -12 -7 5 13 10 48 14 33 3 66 6 73 7 8 1 12
-3 10 -9z m-461 -15 c-3 -3 -12 -4 -19 -1 -8 3 -5 6 6 6 11 1 17 -2 13 -5z
m2133 -55 c0 -25 -26 -35 -46 -18 -14 12 -14 15 6 31 25 20 40 16 40 -13z
m-837 6 c15 -4 27 -11 27 -16 0 -5 9 -9 20 -9 11 0 27 -11 36 -25 9 -14 20
-22 25 -19 13 8 47 -14 54 -35 3 -11 16 -23 28 -27 12 -3 37 -18 56 -32 32
-24 33 -26 16 -39 -27 -19 -38 -17 -95 17 -28 17 -58 30 -66 30 -9 0 -18 9
-21 20 -6 23 -14 25 -30 9 -15 -15 -29 -5 -38 28 -9 37 -19 42 -70 30 -55 -13
-78 2 -69 42 4 14 8 28 10 31 4 8 84 4 117 -5z m-1213 -37 c11 -12 20 -27 20
-33 0 -6 7 -20 14 -31 14 -18 15 -18 26 13 9 24 19 32 45 37 18 4 38 13 45 21
14 17 70 21 70 5 0 -6 -10 -14 -23 -19 -27 -11 -61 -57 -52 -71 3 -6 19 -10
34 -10 19 0 30 -6 34 -18 2 -11 17 -21 35 -25 17 -4 33 -14 35 -24 18 -64 19
-69 4 -51 -19 24 -57 36 -87 27 -48 -14 -70 -9 -107 25 -21 18 -48 36 -60 40
-28 9 -97 102 -89 121 8 21 32 18 56 -7z m294 9 c21 -15 18 -51 -4 -54 -8 -2
-26 6 -40 17 -24 20 -25 21 -6 35 24 18 28 18 50 2z m2322 0 c4 -4 0 -15 -9
-24 -16 -16 -20 -16 -67 1 -33 12 -62 16 -84 12 -32 -6 -61 7 -35 16 21 7 187
3 195 -5z m-2186 -26 c0 -5 30 -17 66 -27 62 -16 67 -20 94 -68 16 -27 27 -53
24 -57 -8 -13 -43 3 -79 37 -35 33 -76 43 -101 26 -14 -9 -34 -68 -34 -98 0
-20 -2 -21 -24 -11 -19 9 -22 16 -15 29 9 16 -11 48 -30 48 -10 0 -31 46 -31
65 0 17 45 21 55 5 3 -5 10 -10 16 -10 13 0 11 34 -3 48 -18 18 20 44 44 31
10 -5 18 -14 18 -18z m-665 -31 c3 -5 -3 -10 -14 -10 -12 0 -21 5 -21 10 0 6
6 10 14 10 8 0 18 -4 21 -10z m1835 -6 c0 -10 -7 -14 -22 -12 -32 5 -35 28 -4
28 17 0 26 -5 26 -16z m1185 -14 c11 -18 -8 -40 -36 -40 -33 0 -48 22 -30 44
11 13 57 11 66 -4z m-2965 -11 c0 -5 -9 -9 -20 -9 -11 0 -20 6 -20 14 0 9 7
12 20 9 11 -3 20 -9 20 -14z m80 -1 c-1 -18 -25 -48 -39 -48 -16 0 -14 17 7
39 20 23 32 26 32 9z m1018 -48 c34 -40 44 -61 38 -85 -9 -35 -32 -31 -76 13
-44 44 -53 73 -33 102 15 21 16 21 36 3 12 -10 28 -25 35 -33z m-1090 -68 c3
-10 -5 -13 -29 -10 -18 2 -34 9 -37 16 -3 10 5 13 29 10 18 -2 34 -9 37 -16z
m2397 8 c3 -5 -1 -10 -9 -10 -9 0 -16 5 -16 10 0 6 4 10 9 10 6 0 13 -4 16
-10z m-2525 -20 c0 -5 -4 -10 -10 -10 -5 0 -10 5 -10 10 0 6 5 10 10 10 6 0
10 -4 10 -10z m2945 -30 c16 -18 17 -20 1 -26 -16 -6 -45 19 -46 39 0 14 27 7
45 -13z m-1311 -12 c3 -13 6 -40 6 -60 0 -20 5 -40 11 -44 7 -4 7 -10 1 -16
-6 -6 -21 -4 -42 7 -31 16 -32 18 -25 62 4 25 9 52 12 59 8 22 30 16 37 -8z
m1129 -30 c18 -13 53 -40 78 -60 37 -30 55 -38 88 -38 32 0 44 -5 57 -25 9
-14 25 -25 36 -25 24 0 54 -15 91 -46 19 -16 41 -24 67 -24 21 0 42 -5 46 -11
4 -6 35 -24 70 -40 64 -29 75 -45 54 -79 -8 -12 -45 -14 -242 -12 -128 2 -240
5 -248 8 -8 2 -25 20 -38 39 -17 26 -29 35 -51 35 -15 0 -36 9 -46 20 -10 11
-27 20 -38 20 -11 0 -61 24 -111 54 -50 29 -117 61 -149 70 -61 18 -77 37 -77
92 0 37 27 43 213 43 158 1 170 0 200 -21z m-1412 -21 c21 -16 35 -71 17 -65
-7 3 -15 13 -17 24 -2 10 -9 23 -17 27 -15 8 -19 27 -6 27 4 0 14 -6 23 -13z
m1955 -104 c-10 -10 -19 5 -10 18 6 11 8 11 12 0 2 -7 1 -15 -2 -18z m-1825 1
c17 -21 -4 -35 -46 -32 -41 4 -47 35 -8 41 15 2 31 5 34 6 4 0 12 -6 20 -15z
m1684 -14 c3 -5 -1 -10 -9 -10 -9 0 -16 5 -16 10 0 6 4 10 9 10 6 0 13 -4 16
-10z m-805 -15 c0 -8 -6 -15 -14 -15 -8 0 -16 7 -20 15 -4 10 1 15 14 15 11 0
20 -7 20 -15z m-756 -41 c24 -9 19 -24 -8 -24 -26 0 -40 12 -29 24 8 8 17 8
37 0z m-109 -64 c6 -20 2 -42 -17 -92 -9 -23 -17 -28 -45 -28 -19 0 -43 -5
-55 -11 -18 -10 -19 -8 -13 11 5 16 0 29 -20 50 -43 45 -12 67 46 33 32 -19
45 -14 31 14 -15 28 -3 43 33 43 25 0 35 -5 40 -20z m565 -11 c0 -5 -4 -9 -10
-9 -5 0 -10 7 -10 16 0 8 5 12 10 9 6 -3 10 -10 10 -16z m400 -5 c0 -8 -4 -12
-10 -9 -5 3 -10 10 -10 16 0 5 5 9 10 9 6 0 10 -7 10 -16z m257 -25 c7 -6 13
-15 13 -20 0 -15 -30 -10 -36 6 -4 8 -14 15 -24 15 -11 0 -22 5 -26 12 -9 14
53 3 73 -13z m-87 -9 c0 -5 -7 -10 -15 -10 -8 0 -15 5 -15 10 0 6 7 10 15 10
8 0 15 -4 15 -10z m-1381 -34 c13 -14 31 -23 42 -21 19 4 35 -26 24 -45 -7
-12 -45 -13 -60 -2 -19 13 -55 65 -55 78 0 22 24 16 49 -10z m2186 14 c-3 -5
-10 -10 -16 -10 -5 0 -9 5 -9 10 0 6 7 10 16 10 8 0 12 -4 9 -10z m-1450 -31
c8 -35 3 -44 -20 -36 -15 6 -21 48 -8 60 13 14 22 6 28 -24z m685 11 c0 -10
-41 -30 -61 -30 -17 0 -9 15 14 26 29 15 47 16 47 4z m155 -11 c0 -8 6 -24 13
-37 12 -21 9 -42 -6 -42 -4 1 -20 12 -37 25 -25 21 -27 27 -15 35 8 5 16 14
16 20 3 20 4 22 16 18 7 -3 13 -11 13 -19z m-2685 -29 c0 -16 -35 -29 -50 -20
-12 7 -9 11 10 19 33 13 40 13 40 1z m2563 -6 c10 -10 -17 -44 -34 -44 -15 0
-15 4 -6 25 12 24 27 32 40 19z m-1328 -34 c0 -7 -10 -19 -22 -27 -22 -15 -23
-15 -12 16 11 31 34 38 34 11z m-375 0 c0 -5 -4 -10 -10 -10 -5 0 -10 5 -10
10 0 6 5 10 10 10 6 0 10 -4 10 -10z m-623 -56 c-9 -9 -28 6 -21 18 4 6 10 6
17 -1 6 -6 8 -13 4 -17z m2383 -3 c0 -12 -20 -25 -27 -18 -7 7 6 27 18 27 5 0
9 -4 9 -9z m-356 -17 c9 -22 8 -24 -9 -24 -8 0 -15 9 -15 20 0 24 15 27 24 4z
m523 -16 c-3 -8 -6 -5 -6 6 -1 11 2 17 5 13 3 -3 4 -12 1 -19z m-1746 -49 c39
-13 87 -55 99 -85 6 -15 21 -23 49 -28 26 -4 44 -13 52 -27 14 -27 4 -77 -20
-104 -11 -11 -22 -36 -26 -55 -6 -32 -4 -36 23 -46 25 -9 31 -19 37 -54 8 -48
-1 -60 -48 -60 -19 0 -38 12 -65 39 -29 31 -46 40 -77 43 -34 2 -40 0 -40 -17
0 -14 10 -23 33 -30 40 -12 43 -35 3 -35 -29 0 -57 21 -44 33 3 4 2 7 -4 7 -6
0 -14 -7 -17 -15 -4 -13 -23 -15 -96 -14 -84 1 -113 12 -72 26 31 11 62 46 62
70 0 28 20 31 27 4 7 -26 53 -47 65 -29 4 7 6 22 3 33 -2 11 -5 25 -5 32 0 21
-43 53 -70 53 -18 0 -43 15 -76 46 -27 25 -56 52 -65 59 -8 8 -31 18 -50 21
-19 4 -48 20 -65 38 -16 17 -43 41 -60 53 -29 21 -29 21 -9 37 17 13 54 15
221 16 124 0 214 -4 235 -11z m2069 1 c0 -5 -4 -10 -10 -10 -5 0 -10 5 -10 10
0 6 5 10 10 10 6 0 10 -4 10 -10z m-100 -30 c0 -5 -4 -10 -10 -10 -5 0 -10 5
-10 10 0 6 5 10 10 10 6 0 10 -4 10 -10z m-120 -60 c12 -8 9 -10 -13 -10 -16
0 -26 4 -22 10 8 12 16 12 35 0z m230 -11 c0 -12 -67 -12 -74 0 -3 4 -3 10 -1
13 8 7 75 -4 75 -13z m-2613 -5 c-3 -3 -12 -4 -19 -1 -8 3 -5 6 6 6 11 1 17
-2 13 -5z m-337 -19 c16 -19 6 -45 -18 -45 -25 0 -46 25 -38 45 7 19 40 19 56
0z m2990 -5 c0 -5 -4 -10 -10 -10 -5 0 -10 5 -10 10 0 6 5 10 10 10 6 0 10 -4
10 -10z m-2512 -29 c17 -17 32 -35 32 -42 0 -8 4 -8 15 1 13 11 18 10 31 -8 8
-12 24 -22 35 -22 12 0 23 -10 29 -25 10 -26 24 -32 35 -15 10 16 35 12 29 -5
-4 -9 -14 -14 -23 -13 -10 2 -15 -3 -14 -16 1 -16 -4 -17 -35 -12 -20 3 -40
12 -44 21 -5 8 -14 15 -21 15 -18 1 -64 51 -76 83 -7 19 -18 27 -34 27 -13 0
-28 5 -35 12 -40 40 32 38 76 -1z m2437 -86 c0 -25 -27 -39 -58 -31 -36 9 -34
19 6 39 38 19 52 17 52 -8z m-885 -10 c0 -8 -7 -15 -15 -15 -8 0 -15 7 -15 15
0 8 7 15 15 15 8 0 15 -7 15 -15z m-1796 -43 c2 -4 1 -14 -4 -21 -10 -17 -31
-5 -23 14 6 16 19 20 27 7z m296 -22 c0 -5 -4 -10 -10 -10 -5 0 -10 5 -10 10
0 6 5 10 10 10 6 0 10 -4 10 -10z m56 -45 c10 -25 -7 -40 -23 -20 -7 11 -13
22 -13 27 0 14 30 9 36 -7z m-494 -89 c53 -1 100 -4 103 -8 4 -4 0 -19 -10
-34 l-17 -26 -19 21 c-23 24 -25 25 -68 10 -40 -14 -40 -50 -1 -59 14 -3 25
-12 25 -20 0 -15 -13 -16 -85 -9 -14 1 -44 -1 -67 -6 -38 -7 -44 -5 -67 20
-30 32 -34 73 -9 82 9 4 25 15 36 26 15 15 26 17 51 11 17 -4 74 -8 128 -8z
m976 -73 c2 -12 -1 -30 -7 -40 -9 -16 -12 -14 -24 17 -9 19 -13 38 -10 43 9
16 38 2 41 -20z m-228 -3 c0 -5 -5 -10 -11 -10 -5 0 -7 5 -4 10 3 6 8 10 11
10 2 0 4 -4 4 -10z m-660 -35 c8 -22 13 -24 30 -15 20 11 30 -3 10 -15 -5 -3
-10 -22 -10 -41 0 -28 -4 -35 -17 -32 -13 2 -19 15 -21 46 -2 26 -9 45 -18 49
-11 4 -12 9 -3 19 16 19 18 18 29 -11z m398 -77 c-6 -16 -32 -22 -64 -14 -40
10 -27 26 22 26 32 0 44 -4 42 -12z m890 -4 c12 -8 22 -20 22 -25 0 -6 9 -22
20 -36 26 -33 25 -39 -5 -65 -30 -26 -31 -33 -5 -65 21 -27 26 -68 11 -92 -11
-17 -41 -7 -41 13 0 9 -9 20 -19 26 -16 8 -25 4 -49 -20 -28 -27 -29 -32 -21
-71 11 -48 -2 -72 -35 -67 -39 6 -33 87 10 133 17 18 24 35 20 48 -8 31 16 97
34 94 10 -1 16 8 18 26 3 22 -1 30 -17 34 -27 7 -27 31 1 60 26 27 27 28 56 7z
m-628 -13 c0 -14 -18 -23 -30 -16 -6 4 -8 11 -5 16 8 12 35 12 35 0z m94 -27
c3 -9 6 -18 6 -20 0 -8 -30 -4 -56 8 l-28 13 30 6 c16 4 32 7 35 8 4 0 10 -6
13 -15z m-1121 -24 c5 -4 4 -11 -3 -15 -10 -6 -80 20 -80 31 0 7 73 -7 83 -16z
m750 -13 c42 -2 78 -8 80 -13 1 -5 -28 -13 -64 -18 -96 -13 -169 4 -156 38 5
12 12 13 34 6 15 -5 63 -11 106 -13z m-353 9 c0 -11 -19 -15 -25 -6 -3 5 1 10
9 10 9 0 16 -2 16 -4z m827 -16 c2 -8 -1 -21 -6 -29 -7 -11 -13 -10 -35 4 -14
10 -26 24 -26 32 0 20 64 13 67 -7z m-987 -9 c0 -9 -53 -31 -76 -31 -22 0 -16
20 9 30 29 12 67 12 67 1z m3000 -25 c50 -15 69 -46 28 -46 -57 0 -91 -27 -68
-55 17 -21 121 -7 151 21 14 13 30 24 36 24 15 0 28 -59 15 -72 -5 -5 -47 -11
-93 -14 -70 -3 -89 -1 -123 17 -38 20 -74 25 -120 17 -10 -2 -21 3 -23 10 -3
8 6 12 26 12 36 0 115 46 105 61 -7 12 2 39 13 39 4 0 28 -6 53 -14z m-2187
-72 c93 -6 119 -16 77 -29 -11 -3 -20 -13 -20 -21 0 -8 9 -22 20 -31 23 -20
27 -75 7 -92 -16 -13 -27 -5 -27 20 0 12 -10 21 -27 25 -16 3 -38 10 -51 15
-32 13 -73 11 -102 -4 -44 -23 -87 -27 -131 -12 -22 8 -45 12 -51 9 -5 -3 -16
2 -24 12 -13 18 -15 18 -33 -6 -19 -24 -20 -24 -27 -5 -14 37 -27 43 -84 39
-42 -4 -68 1 -109 18 -61 26 -83 54 -35 44 16 -3 50 -8 75 -12 42 -5 47 -4 52
16 7 27 31 22 35 -8 2 -11 10 -26 18 -33 12 -9 16 -6 25 20 10 30 13 31 67 32
32 1 68 4 82 9 25 7 70 6 263 -6z m2257 -152 c0 -4 20 -18 45 -30 25 -12 45
-28 45 -36 0 -8 -22 -23 -52 -34 -47 -18 -56 -18 -80 -6 -24 12 -26 18 -21 51
5 38 25 63 50 63 7 0 13 -4 13 -8z m-1210 -86 c0 -18 -30 -30 -43 -17 -5 5 -6
14 -3 20 10 16 46 13 46 -3z m-408 -38 c-9 -9 -12 -7 -12 12 0 19 3 21 12 12
9 -9 9 -15 0 -24z m-918 6 c22 -9 20 -24 -3 -24 -21 0 -34 13 -24 24 8 7 8 7
27 0z m288 -34 c-5 -36 -11 -38 -33 -11 -22 27 -16 43 14 39 17 -2 21 -9 19
-28z m2008 20 c0 -5 -7 -10 -15 -10 -8 0 -15 5 -15 10 0 6 7 10 15 10 8 0 15
-4 15 -10z m-960 -23 c0 -8 -3 -17 -7 -20 -9 -9 -34 13 -27 24 8 14 34 11 34
-4z m-613 -19 c-3 -8 -6 -5 -6 6 -1 11 2 17 5 13 3 -3 4 -12 1 -19z m119 -13
c10 -55 29 -63 49 -21 27 56 45 42 45 -34 0 -21 4 -40 10 -42 5 -1 11 -19 12
-38 3 -30 0 -35 -21 -36 -15 -1 -25 5 -28 17 -3 11 -9 19 -13 19 -5 0 -11 9
-15 19 -9 28 -68 25 -104 -5 -34 -28 -47 -30 -55 -8 -10 26 -7 32 14 27 19 -5
23 -1 46 62 4 11 6 24 5 28 -3 15 20 47 34 47 8 0 17 -14 21 -35z m-505 -14
c18 -17 20 -32 21 -173 0 -86 -3 -161 -6 -167 -4 -6 -15 -11 -25 -11 -9 0 -22
-5 -28 -11 -7 -7 -14 -2 -21 20 -13 36 -17 37 -62 15 -39 -20 -128 -14 -167
11 -23 16 -24 18 -9 33 13 14 21 14 49 4 50 -18 127 -15 149 5 13 12 21 14 26
6 4 -6 18 -13 32 -14 21 -3 25 0 22 21 -1 13 -10 28 -18 33 -12 7 -14 18 -9
43 3 20 1 43 -7 56 -7 13 -11 27 -10 32 2 4 -2 14 -8 21 -9 10 -6 16 11 26 17
9 24 9 27 0 5 -16 22 -13 22 4 0 9 -7 18 -15 21 -17 7 -21 44 -5 44 6 0 20 -8
31 -19z m-229 -36 c-5 -39 -25 -43 -30 -6 -4 23 15 54 27 46 4 -2 5 -20 3 -40z
m2126 27 c2 -7 -3 -12 -12 -12 -9 0 -16 7 -16 16 0 17 22 14 28 -4z m37 -72
c3 -5 -1 -10 -9 -10 -9 0 -16 5 -16 10 0 6 4 10 9 10 6 0 13 -4 16 -10z
m-2150 -10 c4 -6 1 -17 -5 -25 -9 -11 -17 -12 -33 -3 -20 10 -20 11 -2 24 23
17 32 17 40 4z m80 -100 c3 -5 1 -10 -4 -10 -6 0 -11 5 -11 10 0 6 2 10 4 10
3 0 8 -4 11 -10z m556 -31 c19 -19 30 -23 63 -19 11 1 15 -3 12 -9 -4 -6 -14
-11 -22 -11 -23 0 -11 -25 14 -28 13 -2 27 6 38 22 28 43 49 33 67 -31 35
-127 38 -145 31 -181 -10 -53 -20 -62 -73 -61 l-46 1 33 10 c35 12 41 28 17
48 -12 10 -13 16 -4 27 10 11 7 19 -14 41 -14 15 -27 38 -29 52 -3 27 -18 30
-89 18 -32 -6 -38 -3 -48 18 -6 13 -15 24 -20 24 -16 0 -25 -71 -13 -102 8
-21 7 -30 -4 -39 -22 -18 -47 -3 -38 23 10 28 10 48 -1 115 -7 50 -6 54 23 83
25 25 36 29 58 24 15 -4 35 -15 45 -25z m-551 -250 c0 -6 -5 -19 -10 -30 -10
-18 -21 -19 -165 -16 -85 1 -157 6 -161 10 -4 4 -2 13 5 20 13 13 66 14 186 3
62 -6 86 -4 105 7 31 19 40 20 40 6z m539 -45 c12 -11 10 -15 -15 -24 -34 -14
-130 -8 -146 8 -8 8 -8 15 1 25 15 18 139 11 160 -9z m449 9 c-4 -20 -18 -26
-37 -14 -18 12 -5 31 20 31 14 0 19 -6 17 -17z m30 -190 c2 -18 0 -33 -3 -33
-15 0 -75 33 -75 41 0 5 -17 9 -37 9 -29 0 -34 3 -23 10 8 6 42 9 75 8 60 -3
60 -3 63 -35z m562 -13 c0 -5 -4 -10 -10 -10 -5 0 -10 5 -10 10 0 6 5 10 10
10 6 0 10 -4 10 -10z m280 -20 c0 -5 -6 -10 -14 -10 -8 0 -18 5 -21 10 -3 6 3
10 14 10 12 0 21 -4 21 -10z m330 0 c0 -5 -7 -10 -15 -10 -8 0 -15 5 -15 10 0
6 7 10 15 10 8 0 15 -4 15 -10z"/>
<path d="M1666 3371 c-4 -5 -2 -12 3 -15 5 -4 12 -2 15 3 4 5 2 12 -3 15 -5 4
-12 2 -15 -3z"/>
<path d="M1798 1136 c-18 -14 -25 -46 -10 -46 12 0 42 34 42 48 0 15 -11 15
-32 -2z"/>
<path d="M1210 1054 c0 -9 7 -14 17 -12 25 5 28 28 4 28 -12 0 -21 -6 -21 -16z"/>
<path d="M2807 3556 c-8 -21 11 -33 66 -41 43 -7 47 -6 47 14 0 11 -9 25 -19
31 -29 15 -88 13 -94 -4z"/>
<path d="M2744 3487 c-8 -23 2 -47 20 -47 26 0 29 21 8 43 -19 19 -22 19 -28
4z"/>
<path d="M2925 3442 c-16 -4 -29 -11 -28 -15 7 -25 23 -39 44 -39 27 0 98 17
107 26 20 20 -68 40 -123 28z"/>
<path d="M3537 3283 c-12 -11 14 -33 39 -33 17 0 24 6 24 20 0 15 -7 20 -28
20 -16 0 -32 -3 -35 -7z"/>
<path d="M2834 3265 c-18 -14 -18 -14 9 -15 15 0 27 4 27 9 0 18 -17 20 -36 6z"/>
<path d="M2940 3251 c0 -6 15 -18 33 -27 30 -16 31 -16 18 0 -19 23 -51 40
-51 27z"/>
<path d="M3032 3174 c3 -27 6 -29 47 -29 26 -1 45 4 48 12 7 18 27 16 70 -7
45 -24 122 -28 104 -6 -6 7 -35 17 -63 20 -28 4 -67 14 -86 22 -27 11 -37 12
-43 3 -7 -11 -23 -10 -62 6 -16 7 -18 3 -15 -21z"/>
<path d="M3406 3182 c-7 -11 5 -26 34 -40 14 -6 37 -21 51 -33 14 -11 44 -23
67 -26 41 -6 42 -5 42 24 0 26 -7 33 -53 56 -51 26 -130 37 -141 19z"/>
<path d="M3567 2793 c-2 -5 4 -16 15 -25 17 -17 18 -17 18 7 0 23 -23 36 -33
18z"/>
<path d="M2126 2704 c-21 -20 -20 -50 0 -58 22 -9 82 -7 88 2 5 9 -50 72 -63
72 -5 0 -17 -7 -25 -16z"/>
<path d="M2252 2167 c-12 -13 -22 -33 -22 -44 0 -12 -12 -35 -26 -52 -20 -24
-24 -38 -20 -57 5 -20 11 -24 24 -18 9 4 31 7 48 7 30 -1 32 1 39 44 7 49 -2
143 -14 143 -4 0 -17 -10 -29 -23z"/>
<path d="M1937 1924 c-4 -4 0 -15 9 -25 14 -16 14 -18 -5 -29 -34 -18 -24 -30
24 -30 32 0 45 4 45 14 0 8 -6 16 -12 18 -7 3 -13 15 -13 29 0 16 -6 25 -20
27 -12 2 -24 0 -28 -4z"/>
<path d="M3516 1779 c-17 -16 -17 -19 -3 -19 25 0 67 22 61 31 -9 15 -38 9
-58 -12z"/>
<path d="M37 772 c-47 -4 -44 -18 11 -46 47 -24 52 -38 20 -54 -22 -10 -22
-11 7 -11 23 -1 34 -9 47 -31 10 -17 32 -38 50 -46 18 -9 46 -22 62 -31 35
-19 57 -9 67 31 4 16 16 37 26 49 12 13 14 21 6 24 -22 8 -55 42 -57 60 -2 10
-11 18 -22 18 -10 0 -30 7 -44 16 -26 17 -107 27 -173 21z"/>
<path d="M2102 724 c1 -9 9 -19 16 -22 9 -3 13 2 10 14 -1 9 -9 19 -16 22 -9
3 -13 -2 -10 -14z"/>
<path d="M862 619 c2 -7 10 -15 17 -17 8 -3 12 1 9 9 -2 7 -10 15 -17 17 -8 3
-12 -1 -9 -9z"/>
<path d="M2702 608 c3 -7 15 -15 27 -16 16 -3 22 1 19 10 -3 7 -15 15 -27 16
-16 3 -22 -1 -19 -10z"/>
<path d="M2390 590 c0 -5 5 -10 10 -10 6 0 10 5 10 10 0 6 -4 10 -10 10 -5 0
-10 -4 -10 -10z"/>
<path d="M2491 547 c-8 -20 -4 -23 48 -33 74 -14 131 -34 156 -55 11 -10 32
-22 48 -28 23 -9 26 -15 21 -36 -6 -23 -3 -25 27 -25 19 0 41 5 49 11 13 8 12
12 -7 26 -13 8 -23 22 -23 29 0 8 -5 14 -10 14 -6 0 -24 14 -42 30 -17 17 -38
30 -47 30 -10 0 -22 5 -27 10 -6 6 -33 15 -60 20 -27 5 -66 13 -87 18 -35 9
-39 8 -46 -11z"/>
<path d="M130 510 c0 -5 12 -10 26 -10 14 0 23 4 19 10 -3 6 -15 10 -26 10
-10 0 -19 -4 -19 -10z"/>
<path d="M740 490 c-12 -8 -9 -10 13 -10 16 0 26 4 22 10 -8 12 -16 12 -35 0z"/>
<path d="M324 469 c-11 -19 12 -30 57 -27 41 3 42 4 25 21 -19 19 -71 23 -82
6z"/>
<path d="M2430 432 c0 -12 48 -37 57 -29 4 4 2 11 -3 16 -14 14 -54 23 -54 13z"/>
<path d="M2534 385 c11 -8 25 -15 31 -15 6 0 20 7 31 15 17 13 15 14 -31 14
-46 0 -48 -1 -31 -14z"/>
<path d="M3190 230 c0 -5 4 -10 9 -10 6 0 13 5 16 10 3 6 -1 10 -9 10 -9 0
-16 -4 -16 -10z"/>
<path d="M407 96 c-5 -13 -22 -16 -81 -16 -41 0 -78 -5 -81 -10 -3 -6 -23 -7
-43 -4 -30 4 -44 0 -71 -20 -19 -14 -40 -26 -47 -26 -7 0 -16 -4 -19 -10 -4
-6 13 -10 43 -10 38 0 59 7 93 30 40 27 52 30 127 30 51 0 110 -7 155 -20 61
-16 117 -18 117 -4 0 1 -13 17 -30 35 -26 29 -37 33 -93 37 -52 3 -65 1 -70
-12z"/>
<path d="M700 100 c-13 -9 -13 -11 0 -20 8 -5 26 -9 40 -9 16 0 19 3 10 6 -8
4 -19 12 -25 19 -7 10 -15 11 -25 4z"/>
<path d="M850 80 c-12 -8 -12 -10 3 -16 22 -8 50 3 42 16 -8 12 -25 13 -45 0z"/>
<path d="M1135 56 c11 -8 32 -16 48 -16 15 0 36 -5 46 -12 15 -9 23 -9 35 2
21 17 12 25 -27 26 -18 0 -52 4 -77 9 -42 7 -44 6 -25 -9z"/>
<path d="M1310 50 c0 -5 7 -10 15 -10 8 0 15 5 15 10 0 6 -7 10 -15 10 -8 0
-15 -4 -15 -10z"/>
<path d="M770 30 c0 -5 14 -10 31 -10 17 0 28 4 24 10 -8 13 -55 13 -55 0z"/>
</g>
</svg>
